<svg width="64" height="64" viewBox="0 0 64 64" fill="none" xmlns="http://www.w3.org/2000/svg">
<path d="M32 0C14.35 0 0 14.35 0 32C0 49.65 14.35 64 32 64C49.65 64 64 49.65 64 32C64 14.35 49.65 0 32 0Z" fill="#FF5A5F"/>
<path d="M32 40.4268C29.902 37.7878 28.6679 35.4746 28.2565 33.4953C27.8452 31.8872 28.0097 30.6089 28.709 29.6606C29.4495 28.5472 30.5602 28.0112 32 28.0112C33.4397 28.0112 34.5504 28.5472 35.2909 29.6606C35.9902 30.6089 36.1547 31.8872 35.7434 33.4953C35.2909 35.5158 34.0568 37.8249 32 40.4268ZM43.4853 46.5294C39.9887 48.0551 36.5291 45.6223 33.5673 42.3235C38.4666 36.1755 39.3716 31.3924 37.2695 28.2957C36.0354 26.5226 34.2666 25.6567 32 25.6567C27.4338 25.6567 24.9204 29.5327 25.9076 34.0314C26.4836 36.4642 28.0056 39.231 30.4327 42.3235C28.6122 44.3456 26.2239 46.6393 23.3572 46.9005C19.2024 47.519 15.9485 43.4781 17.4294 39.3093L27.9645 17.447C28.8636 15.8035 29.9734 14.3957 31.9958 14.3957C33.4768 14.3957 34.6286 15.2616 35.1222 15.9626L46.5623 39.3093C47.6831 42.1303 46.2617 45.3277 43.4853 46.5294ZM48.7919 38.4846L38.9973 18.0655C37.1461 14.272 35.8298 12 32 12C28.2154 12 26.607 14.639 24.9615 18.0655L15.208 38.4846C13.1101 44.2615 17.4294 49.3333 22.6579 49.3333C22.987 49.3333 23.3137 49.2921 23.6451 49.2921C26.3601 48.9622 29.1615 47.2304 32 44.1337C34.8384 47.2263 37.6398 48.9622 40.3548 49.2921C40.6862 49.2921 41.0129 49.3333 41.3421 49.3333C46.5705 49.3375 50.8898 44.2615 48.7919 38.4846Z" fill="white"/>
</svg>
