<svg width="74" height="25" viewBox="0 0 74 25" fill="none" xmlns="http://www.w3.org/2000/svg">
<path d="M3.104 24.288C2.44267 24.288 1.888 24.1387 1.44 23.84C0.992 23.52 0.714667 23.0933 0.608 22.56C0.501333 22.0053 0.597333 21.3867 0.896 20.704L8.864 3.552C9.248 2.72 9.71733 2.112 10.272 1.728C10.848 1.344 11.4987 1.152 12.224 1.152C12.9493 1.152 13.5787 1.344 14.112 1.728C14.6667 2.112 15.1467 2.72 15.552 3.552L23.52 20.704C23.8613 21.3867 23.9787 22.0053 23.872 22.56C23.7867 23.1147 23.52 23.5413 23.072 23.84C22.6453 24.1387 22.112 24.288 21.472 24.288C20.6187 24.288 19.9573 24.096 19.488 23.712C19.04 23.328 18.6347 22.7093 18.272 21.856L16.544 17.792L18.784 19.424H5.6L7.872 17.792L6.144 21.856C5.76 22.7093 5.36533 23.328 4.96 23.712C4.55467 24.096 3.936 24.288 3.104 24.288ZM12.16 7.584L8.448 16.448L7.552 14.912H16.864L15.968 16.448L12.224 7.584H12.16ZM26.7103 24.288C25.8143 24.288 25.1209 24.0427 24.6303 23.552C24.1396 23.0613 23.8943 22.3467 23.8943 21.408V10.816C23.8943 9.89867 24.1289 9.19467 24.5983 8.704C25.0889 8.21333 25.7823 7.968 26.6783 7.968C27.5743 7.968 28.2569 8.21333 28.7263 8.704C29.1956 9.19467 29.4303 9.89867 29.4303 10.816V12.576L29.0783 11.008C29.5263 10.0693 30.1876 9.32267 31.0623 8.768C31.9583 8.192 33.0143 7.904 34.2303 7.904C35.3823 7.904 36.3636 8.18133 37.1743 8.736C38.0063 9.29067 38.6036 10.1333 38.9663 11.264H38.5183C39.0089 10.2187 39.7449 9.39733 40.7263 8.8C41.7076 8.20267 42.7956 7.904 43.9903 7.904C45.2276 7.904 46.2409 8.14933 47.0303 8.64C47.8196 9.10933 48.4063 9.856 48.7903 10.88C49.1956 11.8827 49.3983 13.152 49.3983 14.688V21.408C49.3983 22.3467 49.1423 23.0613 48.6303 23.552C48.1396 24.0427 47.4356 24.288 46.5183 24.288C45.6223 24.288 44.9289 24.0427 44.4383 23.552C43.9476 23.0613 43.7023 22.3467 43.7023 21.408V14.848C43.7023 13.9307 43.5636 13.2693 43.2863 12.864C43.0089 12.4587 42.5503 12.256 41.9103 12.256C41.1209 12.256 40.5129 12.5333 40.0863 13.088C39.6809 13.6427 39.4783 14.432 39.4783 15.456V21.408C39.4783 22.3467 39.2329 23.0613 38.7423 23.552C38.2516 24.0427 37.5476 24.288 36.6303 24.288C35.7129 24.288 35.0089 24.0427 34.5183 23.552C34.0276 23.0613 33.7823 22.3467 33.7823 21.408V14.848C33.7823 13.9307 33.6436 13.2693 33.3663 12.864C33.0889 12.4587 32.6303 12.256 31.9903 12.256C31.2223 12.256 30.6249 12.5333 30.1983 13.088C29.7929 13.6427 29.5903 14.432 29.5903 15.456V21.408C29.5903 23.328 28.6303 24.288 26.7103 24.288ZM53.2813 24.288C52.3853 24.288 51.6919 24.0213 51.2013 23.488C50.7106 22.9547 50.4653 22.1867 50.4653 21.184V11.072C50.4653 10.0693 50.7106 9.30133 51.2013 8.768C51.6919 8.23467 52.3853 7.968 53.2813 7.968C54.1986 7.968 54.9026 8.23467 55.3933 8.768C55.9053 9.30133 56.1613 10.0693 56.1613 11.072V21.184C56.1613 22.1867 55.9159 22.9547 55.4253 23.488C54.9346 24.0213 54.2199 24.288 53.2813 24.288ZM53.2813 5.696C52.2786 5.696 51.4999 5.46133 50.9453 4.992C50.4119 4.52267 50.1453 3.84 50.1453 2.944C50.1453 2.06933 50.4119 1.39733 50.9453 0.927999C51.4999 0.458666 52.2786 0.223999 53.2813 0.223999C54.3266 0.223999 55.1159 0.458666 55.6493 0.927999C56.1826 1.39733 56.4493 2.06933 56.4493 2.944C56.4493 3.84 56.1826 4.52267 55.6493 4.992C55.1159 5.46133 54.3266 5.696 53.2813 5.696ZM60.0412 24.288C59.1452 24.288 58.4519 24.0427 57.9612 23.552C57.4706 23.0613 57.2252 22.3467 57.2252 21.408V10.816C57.2252 9.89867 57.4599 9.19467 57.9292 8.704C58.4199 8.21333 59.1132 7.968 60.0092 7.968C60.9052 7.968 61.5879 8.21333 62.0572 8.704C62.5266 9.19467 62.7612 9.89867 62.7612 10.816V12.32L62.4092 11.008C62.9212 10.0053 63.6466 9.23733 64.5852 8.704C65.5452 8.17067 66.6332 7.904 67.8492 7.904C69.1079 7.904 70.1426 8.14933 70.9532 8.64C71.7639 9.10933 72.3719 9.856 72.7773 10.88C73.1826 11.8827 73.3853 13.152 73.3853 14.688V21.408C73.3853 22.3467 73.1399 23.0613 72.6493 23.552C72.1586 24.0427 71.4546 24.288 70.5372 24.288C69.6199 24.288 68.9159 24.0427 68.4252 23.552C67.9346 23.0613 67.6892 22.3467 67.6892 21.408V14.912C67.6892 13.952 67.5186 13.2693 67.1772 12.864C66.8572 12.4587 66.3772 12.256 65.7372 12.256C64.8839 12.256 64.2012 12.5333 63.6892 13.088C63.1772 13.6213 62.9212 14.3467 62.9212 15.264V21.408C62.9212 23.328 61.9612 24.288 60.0412 24.288Z" fill="#D9E1FF" fill-opacity="0.49"/>
</svg>
