<svg width="111" height="37" viewBox="0 0 111 37" fill="none" xmlns="http://www.w3.org/2000/svg">
<path d="M4.656 36.432C3.664 36.432 2.832 36.208 2.16 35.76C1.488 35.28 1.072 34.64 0.912 33.84C0.752 33.008 0.896 32.08 1.344 31.056L13.296 5.328C13.872 4.08 14.576 3.168 15.408 2.592C16.272 2.016 17.248 1.728 18.336 1.728C19.424 1.728 20.368 2.016 21.168 2.592C22 3.168 22.72 4.08 23.328 5.328L35.28 31.056C35.792 32.08 35.968 33.008 35.808 33.84C35.68 34.672 35.28 35.312 34.608 35.76C33.968 36.208 33.168 36.432 32.208 36.432C30.928 36.432 29.936 36.144 29.232 35.568C28.56 34.992 27.952 34.064 27.408 32.784L24.816 26.688L28.176 29.136H8.4L11.808 26.688L9.216 32.784C8.64 34.064 8.048 34.992 7.44 35.568C6.832 36.144 5.904 36.432 4.656 36.432ZM18.24 11.376L12.672 24.672L11.328 22.368H25.296L23.952 24.672L18.336 11.376H18.24ZM40.0654 36.432C38.7214 36.432 37.6814 36.064 36.9454 35.328C36.2094 34.592 35.8414 33.52 35.8414 32.112V16.224C35.8414 14.848 36.1934 13.792 36.8974 13.056C37.6334 12.32 38.6734 11.952 40.0174 11.952C41.3614 11.952 42.3854 12.32 43.0894 13.056C43.7934 13.792 44.1454 14.848 44.1454 16.224V18.864L43.6174 16.512C44.2894 15.104 45.2814 13.984 46.5934 13.152C47.9374 12.288 49.5214 11.856 51.3454 11.856C53.0734 11.856 54.5454 12.272 55.7614 13.104C57.0094 13.936 57.9054 15.2 58.4494 16.896H57.7774C58.5134 15.328 59.6174 14.096 61.0894 13.2C62.5614 12.304 64.1934 11.856 65.9854 11.856C67.8414 11.856 69.3614 12.224 70.5454 12.96C71.7294 13.664 72.6094 14.784 73.1854 16.32C73.7934 17.824 74.0974 19.728 74.0974 22.032V32.112C74.0974 33.52 73.7134 34.592 72.9454 35.328C72.2094 36.064 71.1534 36.432 69.7774 36.432C68.4334 36.432 67.3934 36.064 66.6574 35.328C65.9214 34.592 65.5534 33.52 65.5534 32.112V22.272C65.5534 20.896 65.3454 19.904 64.9294 19.296C64.5134 18.688 63.8254 18.384 62.8654 18.384C61.6814 18.384 60.7694 18.8 60.1294 19.632C59.5214 20.464 59.2174 21.648 59.2174 23.184V32.112C59.2174 33.52 58.8494 34.592 58.1134 35.328C57.3774 36.064 56.3214 36.432 54.9454 36.432C53.5694 36.432 52.5134 36.064 51.7774 35.328C51.0414 34.592 50.6734 33.52 50.6734 32.112V22.272C50.6734 20.896 50.4654 19.904 50.0494 19.296C49.6334 18.688 48.9454 18.384 47.9854 18.384C46.8334 18.384 45.9374 18.8 45.2974 19.632C44.6894 20.464 44.3854 21.648 44.3854 23.184V32.112C44.3854 34.992 42.9454 36.432 40.0654 36.432ZM79.9219 36.432C78.5779 36.432 77.5379 36.032 76.8019 35.232C76.0659 34.432 75.6979 33.28 75.6979 31.776V16.608C75.6979 15.104 76.0659 13.952 76.8019 13.152C77.5379 12.352 78.5779 11.952 79.9219 11.952C81.2979 11.952 82.3539 12.352 83.0899 13.152C83.8579 13.952 84.2419 15.104 84.2419 16.608V31.776C84.2419 33.28 83.8739 34.432 83.1379 35.232C82.4019 36.032 81.3299 36.432 79.9219 36.432ZM79.9219 8.544C78.4179 8.544 77.2499 8.192 76.4179 7.488C75.6179 6.784 75.2179 5.76 75.2179 4.416C75.2179 3.104 75.6179 2.096 76.4179 1.392C77.2499 0.687999 78.4179 0.335999 79.9219 0.335999C81.4899 0.335999 82.6739 0.687999 83.4739 1.392C84.2739 2.096 84.6739 3.104 84.6739 4.416C84.6739 5.76 84.2739 6.784 83.4739 7.488C82.6739 8.192 81.4899 8.544 79.9219 8.544ZM90.0619 36.432C88.7179 36.432 87.6779 36.064 86.9419 35.328C86.2059 34.592 85.8379 33.52 85.8379 32.112V16.224C85.8379 14.848 86.1899 13.792 86.8939 13.056C87.6299 12.32 88.6699 11.952 90.0139 11.952C91.3579 11.952 92.3819 12.32 93.0859 13.056C93.7899 13.792 94.1419 14.848 94.1419 16.224V18.48L93.6139 16.512C94.3819 15.008 95.4699 13.856 96.8779 13.056C98.3179 12.256 99.9499 11.856 101.774 11.856C103.662 11.856 105.214 12.224 106.43 12.96C107.646 13.664 108.558 14.784 109.166 16.32C109.774 17.824 110.078 19.728 110.078 22.032V32.112C110.078 33.52 109.71 34.592 108.974 35.328C108.238 36.064 107.182 36.432 105.806 36.432C104.43 36.432 103.374 36.064 102.638 35.328C101.902 34.592 101.534 33.52 101.534 32.112V22.368C101.534 20.928 101.278 19.904 100.766 19.296C100.286 18.688 99.5659 18.384 98.6059 18.384C97.3259 18.384 96.3019 18.8 95.5339 19.632C94.7659 20.432 94.3819 21.52 94.3819 22.896V32.112C94.3819 34.992 92.9419 36.432 90.0619 36.432Z" fill="#3894FC"/>
</svg>
