<svg width="64" height="64" viewBox="0 0 64 64" fill="none" xmlns="http://www.w3.org/2000/svg">
<g clip-path="url(#clip0_14_65)">
<path d="M64 32C64 49.664 49.68 64 32 64C14.32 64 0 49.664 0 32C0 14.32 14.32 0 32 0C49.68 0 64 14.32 64 32Z" fill="#283544"/>
<path d="M44.1242 24.9148C43.9714 25.0039 40.3341 26.885 40.3341 31.0557C40.5056 35.8122 44.9242 37.4802 45 37.4802C44.9242 37.5694 44.3329 39.7526 42.5814 42.0411C41.1913 44.0124 39.6484 46 37.3056 46C35.077 46 34.277 44.6862 31.7056 44.6862C28.9441 44.6862 28.1627 46 26.0484 46C23.7055 46 22.0484 43.9059 20.5825 41.9531C18.6782 39.3972 17.0596 35.3862 17.0024 31.5349C16.9639 29.4941 17.3838 27.4881 18.4496 25.7841C19.954 23.4053 22.6397 21.7905 25.5726 21.7372C27.8198 21.6666 29.8198 23.1749 31.1913 23.1749C32.5056 23.1749 34.9627 21.7372 37.7428 21.7372C38.9428 21.7384 42.1428 22.0752 44.1242 24.9148ZM31.0012 21.3298C30.6012 19.4661 31.7056 17.6024 32.7341 16.4135C34.0484 14.9758 36.1242 14 37.9143 14C38.0286 15.8637 37.3043 17.6915 36.0099 19.0227C34.8484 20.4604 32.8484 21.5428 31.0012 21.3298Z" fill="white"/>
</g>
<defs>
<clipPath id="clip0_14_65">
<rect width="64" height="64" fill="white"/>
</clipPath>
</defs>
</svg>
