<svg width="16" height="16" viewBox="0 0 16 16" fill="none" xmlns="http://www.w3.org/2000/svg">
<path d="M5.33331 5.33333L5.33331 4.66666C5.33331 3.1939 6.52722 2 7.99998 2V2C9.47274 2 10.6666 3.1939 10.6666 4.66666L10.6666 5.33333" stroke="#C0C0C0" stroke-width="2" stroke-linecap="round"/>
<path fill-rule="evenodd" clip-rule="evenodd" d="M2.26795 5.66667C2 6.13077 2 6.75385 2 8.00001V8.66667C2 10.5304 2 11.4623 2.30448 12.1974C2.71046 13.1775 3.48915 13.9562 4.46927 14.3622C5.20435 14.6667 6.13623 14.6667 8 14.6667C9.86377 14.6667 10.7956 14.6667 11.5307 14.3622C12.5108 13.9562 13.2895 13.1775 13.6955 12.1974C14 11.4623 14 10.5304 14 8.66667V8.00001C14 6.75385 14 6.13077 13.7321 5.66667C13.5565 5.36263 13.304 5.11016 13 4.93462C12.5359 4.66667 11.9128 4.66667 10.6667 4.66667H5.33333C4.08718 4.66667 3.4641 4.66667 3 4.93462C2.69596 5.11016 2.44349 5.36263 2.26795 5.66667ZM7 8.00001C7 7.44772 6.55228 7.00001 6 7.00001C5.44772 7.00001 5 7.44772 5 8.00001V9.33334C5 9.88562 5.44772 10.3333 6 10.3333C6.55228 10.3333 7 9.88562 7 9.33334V8.00001ZM11 8.00001C11 7.44772 10.5523 7.00001 10 7.00001C9.44772 7.00001 9 7.44772 9 8.00001V9.33334C9 9.88562 9.44772 10.3333 10 10.3333C10.5523 10.3333 11 9.88562 11 9.33334V8.00001Z" fill="#C0C0C0"/>
</svg>
