<svg width="14" height="14" viewBox="0 0 14 14" fill="none" xmlns="http://www.w3.org/2000/svg">
<path d="M3.79313 4.06886C3.95789 2.42132 5.34426 1.16667 7.00002 1.16667C8.65578 1.16667 10.0422 2.42132 10.2069 4.06886L10.3741 5.74078C10.4568 6.56762 10.7411 7.36156 11.202 8.05297L11.7043 8.80646C11.7839 8.92578 11.8236 8.98543 11.8464 9.02796C12.1833 9.65719 11.7715 10.4267 11.0611 10.4954C11.0131 10.5 10.9414 10.5 10.798 10.5H3.20207C3.05867 10.5 2.98697 10.5 2.93896 10.4954C2.22851 10.4267 1.8167 9.65719 2.15363 9.02796C2.1764 8.98543 2.21617 8.92578 2.29571 8.80646L2.79804 8.05297C3.25898 7.36156 3.54326 6.56762 3.62594 5.74078L3.79313 4.06886Z" fill="#C0C0C0"/>
<path d="M5.87311 12.0338C5.93958 12.0958 6.08605 12.1506 6.2898 12.1897C6.49355 12.2288 6.7432 12.25 7.00002 12.25C7.25684 12.25 7.50649 12.2288 7.71024 12.1897C7.91399 12.1506 8.06046 12.0958 8.12693 12.0338" stroke="#C0C0C0" stroke-width="2" stroke-linecap="round"/>
</svg>
