<svg width="14" height="14" viewBox="0 0 14 14" fill="none" xmlns="http://www.w3.org/2000/svg">
<path fill-rule="evenodd" clip-rule="evenodd" d="M10.3138 5.32399L10.2387 4.64883C10.1384 3.74579 9.6753 2.96306 9.00443 2.43936C8.79172 2.73875 8.66665 3.10477 8.66665 3.5C8.66665 4.44966 9.38871 5.23067 10.3138 5.32399ZM10.898 7.6479C10.767 7.66032 10.6342 7.66667 10.5 7.66667C8.1988 7.66667 6.33332 5.80119 6.33332 3.5C6.33332 2.87991 6.46877 2.29147 6.71171 1.76263C5.18058 1.89734 3.93388 3.09499 3.76123 4.64883L3.61434 5.97079C3.53899 6.64895 3.31826 7.30288 2.9672 7.88797L2.63002 8.44995C2.24272 9.09545 2.70768 9.91667 3.46046 9.91667H10.5395C11.2923 9.91667 11.7573 9.09545 11.37 8.44995L11.0328 7.88797C10.9855 7.80916 10.9406 7.7291 10.898 7.6479Z" fill="#C0C0C0"/>
<path d="M5.25 9.91667C5.25 10.1465 5.29527 10.374 5.38321 10.5864C5.47116 10.7987 5.60006 10.9916 5.76256 11.1541C5.92507 11.3166 6.11798 11.4455 6.3303 11.5335C6.54262 11.6214 6.77019 11.6667 7 11.6667C7.22981 11.6667 7.45738 11.6214 7.6697 11.5335C7.88202 11.4455 8.07493 11.3166 8.23744 11.1541C8.39994 10.9916 8.52884 10.7987 8.61679 10.5864C8.70473 10.374 8.75 10.1465 8.75 9.91667L7 9.91667H5.25Z" fill="#C0C0C0"/>
<circle cx="10.5" cy="3.5" r="1.66667" fill="#C0C0C0" stroke="#C0C0C0"/>
</svg>
