<svg width="64" height="64" viewBox="0 0 64 64" fill="none" xmlns="http://www.w3.org/2000/svg">
<g clip-path="url(#clip0_15_77)">
<path d="M32 0C14.3271 0 0 14.3271 0 32C0 49.6729 14.3271 64.0001 32 64.0001C49.6729 64.0001 64 49.6729 64 32C64 14.3271 49.6729 0 32 0Z" fill="url(#paint0_linear_15_77)"/>
<path d="M32 52.4406C20.7112 52.4406 11.5594 43.289 11.5594 32C11.5594 20.7112 20.7112 11.5595 32 11.5595C43.2888 11.5595 52.4406 20.7112 52.4406 32C52.4406 43.289 43.289 52.4406 32 52.4406Z" fill="white"/>
<path d="M12.8745 31.9999H32V12.8744C21.4374 12.8744 12.8745 21.4375 12.8745 31.9999ZM32 31.9999V51.1256C42.5626 51.1256 51.1255 42.5627 51.1255 31.9999H32Z" fill="url(#paint1_linear_15_77)"/>
<path fill-rule="evenodd" clip-rule="evenodd" d="M14.2705 12.2499C15.2538 11.6403 16.3011 11.8388 16.9787 12.4974C18.0198 13.5093 17.8666 14.6794 16.8763 15.8596L12.542 21.0249L6.08112 15.6035L10.1911 10.7055C11.0418 9.69169 12.2312 8.88209 13.3613 9.83039C13.3822 9.84792 13.4024 9.86475 13.4219 9.88106C13.7291 10.1373 13.8836 10.2662 14.2819 10.9924C14.3816 11.2665 14.4583 11.7632 14.2705 12.2499ZM12.4373 11.9395C12.0216 11.5908 11.3752 11.5768 11.0892 11.9177L8.62061 14.8596L10.1477 16.1411L12.5885 13.2323C12.8954 12.8667 12.8943 12.323 12.4373 11.9395ZM12.8585 18.4158L15.4319 15.3491C15.7736 14.9418 15.7242 14.3073 15.2256 13.8891C14.7851 13.5193 14.1319 13.621 13.839 13.9701L11.2449 17.0618L12.8585 18.4158Z" fill="white"/>
<path d="M35.2895 4.28882L33.0706 10.1699H31.2285L29.0096 4.28882V10.1699H27.3234V1.7471H29.8569L32.1495 7.74652L34.4421 1.7471H36.9758V10.1699H35.2895V4.28882Z" fill="white"/>
<path d="M52.568 18.169L55.7429 13.6741L54.3448 11.9475L49.288 14.1185L52.597 9.78989L51.2938 8.18053L46.0096 14.9775L47.5541 16.8694L52.5458 14.8152L52.5639 14.8375L49.5167 19.2931L51.0462 21.197L58.7933 17.4417L57.49 15.8323L52.568 18.169Z" fill="white"/>
</g>
<defs>
<linearGradient id="paint0_linear_15_77" x1="9.77538" y1="9.7753" x2="52.9901" y2="55.4594" gradientUnits="userSpaceOnUse">
<stop offset="0.0273393" stop-color="#949AA0"/>
<stop offset="0.403335" stop-color="#1A1D1E"/>
<stop offset="1" stop-color="#040606"/>
</linearGradient>
<linearGradient id="paint1_linear_15_77" x1="32" y1="12.8744" x2="32" y2="51.1256" gradientUnits="userSpaceOnUse">
<stop stop-color="#7CD1F4"/>
<stop offset="1" stop-color="#1274B9"/>
</linearGradient>
<clipPath id="clip0_15_77">
<rect width="64" height="64" fill="white"/>
</clipPath>
</defs>
</svg>
