<svg width="22" height="22" viewBox="0 0 22 22" fill="none" xmlns="http://www.w3.org/2000/svg">
<path d="M8.25 6.41666L11.9167 6.41666" stroke="white" stroke-width="2" stroke-linecap="round"/>
<path d="M8.25 13.75L11 13.75" stroke="white" stroke-width="2" stroke-linecap="round"/>
<path d="M8.25 10.0833L13.75 10.0833" stroke="white" stroke-width="2" stroke-linecap="round"/>
<path d="M17.4167 10.0833V8.75C17.4167 5.92157 17.4167 4.50736 16.538 3.62868C15.6593 2.75 14.2451 2.75 11.4167 2.75H10.5833C7.75492 2.75 6.3407 2.75 5.46202 3.62868C4.58334 4.50736 4.58334 5.92157 4.58334 8.75V13.25C4.58334 16.0784 4.58334 17.4926 5.46202 18.3713C6.3407 19.25 7.75492 19.25 10.5833 19.25H11" stroke="white" stroke-width="2"/>
<circle cx="16.0417" cy="16.0417" r="2.29167" stroke="white" stroke-width="2"/>
<path d="M19.25 19.25L17.875 17.875" stroke="white" stroke-width="2" stroke-linecap="round"/>
</svg>
