<svg width="22" height="22" viewBox="0 0 22 22" fill="none" xmlns="http://www.w3.org/2000/svg">
<circle cx="16.0417" cy="16.0417" r="2.29167" stroke="white" stroke-width="2"/>
<path d="M19.25 19.25L17.875 17.875" stroke="white" stroke-width="2" stroke-linecap="round"/>
<path fill-rule="evenodd" clip-rule="evenodd" d="M3.66669 9.16668C3.66669 6.03924 3.66669 4.47553 4.49327 3.3983C4.70608 3.12097 4.95431 2.87273 5.23164 2.65993C6.30887 1.83334 7.87259 1.83334 11 1.83334C14.1275 1.83334 15.6912 1.83334 16.7684 2.65993C17.0457 2.87273 17.294 3.12097 17.5068 3.3983C18.3334 4.47553 18.3334 6.03924 18.3334 9.16668V11.8325C17.6526 11.4611 16.8718 11.25 16.0417 11.25C13.3953 11.25 11.25 13.3953 11.25 16.0417C11.25 17.7783 12.1739 19.2992 13.557 20.1396C12.8412 20.1667 12.0007 20.1667 11 20.1667C7.87259 20.1667 6.30887 20.1667 5.23164 19.3401C4.95431 19.1273 4.70608 18.8791 4.49327 18.6017C3.66669 17.5245 3.66669 15.9608 3.66669 12.8333V9.16668ZM16.2415 15.9824C16.2191 16.0017 16.1971 16.0215 16.1753 16.0417C16.1523 16.063 16.1296 16.0849 16.1073 16.1072C16.0849 16.1296 16.063 16.1523 16.0417 16.1753C16.0215 16.1971 16.0017 16.2191 15.9824 16.2415C15.8962 16.2159 15.8334 16.1361 15.8334 16.0417C15.8334 15.9266 15.9266 15.8333 16.0417 15.8333C16.1361 15.8333 16.2159 15.8962 16.2415 15.9824ZM7.33335 4.50001C6.78107 4.50001 6.33335 4.94773 6.33335 5.50001C6.33335 6.0523 6.78107 6.50001 7.33335 6.50001H11C11.5523 6.50001 12 6.0523 12 5.50001C12 4.94773 11.5523 4.50001 11 4.50001H7.33335ZM7.33335 8.16668C6.78107 8.16668 6.33335 8.61439 6.33335 9.16668C6.33335 9.71896 6.78107 10.1667 7.33335 10.1667L12.8334 10.1667C13.3856 10.1667 13.8334 9.71896 13.8334 9.16668C13.8334 8.61439 13.3856 8.16668 12.8334 8.16668L7.33335 8.16668ZM7.33335 11.8333C6.78107 11.8333 6.33335 12.2811 6.33335 12.8333C6.33335 13.3856 6.78107 13.8333 7.33335 13.8333H10.0834C10.6356 13.8333 11.0834 13.3856 11.0834 12.8333C11.0834 12.2811 10.6356 11.8333 10.0834 11.8333H7.33335Z" fill="white"/>
</svg>
