<svg width="16" height="16" viewBox="0 0 16 16" fill="none" xmlns="http://www.w3.org/2000/svg">
<path fill-rule="evenodd" clip-rule="evenodd" d="M8.39782 11.7992C9.52632 11.1904 12.6666 9.208 12.6666 6C12.6666 3.42267 10.5773 1.33333 7.99998 1.33333C5.42265 1.33333 3.33331 3.42267 3.33331 6C3.33331 9.208 6.47364 11.1904 7.60214 11.7992C7.85284 11.9344 8.14712 11.9344 8.39782 11.7992ZM7.99998 8C9.10455 8 9.99998 7.10456 9.99998 6C9.99998 4.89543 9.10455 3.99999 7.99998 3.99999C6.89541 3.99999 5.99998 4.89543 5.99998 6C5.99998 7.10456 6.89541 8 7.99998 8Z" fill="#C0C0C0"/>
<path d="M12.0414 11C12.451 11.304 12.6666 11.6489 12.6666 12C12.6666 12.3511 12.451 12.696 12.0414 13C11.6318 13.304 11.0427 13.5565 10.3333 13.7321C9.62389 13.9076 8.81915 14 7.99998 14C7.18081 14 6.37607 13.9076 5.66665 13.7321C4.95722 13.5565 4.36811 13.304 3.95853 13C3.54894 12.696 3.33331 12.3511 3.33331 12C3.33331 11.6489 3.54894 11.304 3.95853 11" stroke="#C0C0C0" stroke-width="2" stroke-linecap="round"/>
</svg>
