<svg width="20" height="20" viewBox="0 0 20 20" fill="none" xmlns="http://www.w3.org/2000/svg">
<path d="M10.773 3.1228L15.5077 4.38538C15.9454 4.50212 16.25 4.89857 16.25 5.35162V9.70557C16.25 11.7117 15.2474 13.5851 13.5782 14.6979L10.5547 16.7135C10.2188 16.9375 9.7812 16.9375 9.4453 16.7135L6.4218 14.6979C4.75261 13.5851 3.75 11.7117 3.75 9.70557V5.35162C3.75 4.89857 4.05458 4.50212 4.49234 4.38538L9.22701 3.1228C9.73349 2.98774 10.2665 2.98774 10.773 3.1228Z" stroke="#C0C0C0" stroke-linecap="round"/>
<path d="M7.91667 9.58333L9.40656 11.0732C9.50419 11.1708 9.66248 11.1708 9.76011 11.0732L12.5 8.33333" stroke="#C0C0C0" stroke-linecap="round"/>
</svg>
