<svg width="22" height="22" viewBox="0 0 22 22" fill="none" xmlns="http://www.w3.org/2000/svg">
<path d="M13.2916 19.25V14.75C13.2916 14.1977 12.8439 13.75 12.2916 13.75H9.70825C9.15597 13.75 8.70825 14.1977 8.70825 14.75V19.25" stroke="#5A5A5A" stroke-width="2" stroke-linecap="round" stroke-linejoin="round"/>
<path d="M4.58325 10.0833V15.25C4.58325 17.1356 4.58325 18.0784 5.16904 18.6642C5.75482 19.25 6.69763 19.25 8.58325 19.25H13.4166C15.3022 19.25 16.245 19.25 16.8308 18.6642C17.4166 18.0784 17.4166 17.1356 17.4166 15.25V10.0833" stroke="#5A5A5A" stroke-width="2"/>
<path d="M4.2046 4.26493C4.38649 3.53737 4.47744 3.17359 4.7487 2.96179C5.01996 2.75 5.39493 2.75 6.14489 2.75H15.8551C16.6051 2.75 16.98 2.75 17.2513 2.96179C17.5226 3.17359 17.6135 3.53737 17.7954 4.26493L18.8671 8.55193C18.9324 8.81302 18.9651 8.94356 18.9686 9.04943C18.9851 9.53345 18.6523 9.95968 18.1787 10.0611C18.0752 10.0833 17.9363 10.0833 17.6587 10.0833V10.0833C17.3036 10.0833 17.1261 10.0833 16.9763 10.0605C16.2302 9.94681 15.6117 9.42282 15.3769 8.7056C15.3297 8.56159 15.3014 8.3919 15.2449 8.05252V8.05252C15.229 7.9576 15.2211 7.91014 15.2143 7.89653C15.1773 7.8233 15.0727 7.8233 15.0357 7.89653C15.0289 7.91014 15.021 7.9576 15.0051 8.05252L14.9304 8.50099C14.7782 9.41409 13.9882 10.0833 13.0625 10.0833V10.0833C12.1368 10.0833 11.3468 9.41409 11.1946 8.50099L11.1199 8.05252C11.104 7.9576 11.0961 7.91014 11.0893 7.89653C11.0523 7.8233 10.9477 7.8233 10.9107 7.89653C10.9039 7.91014 10.896 7.9576 10.8801 8.05252L10.8054 8.50099C10.6532 9.41409 9.86319 10.0833 8.9375 10.0833V10.0833C8.01181 10.0833 7.22179 9.41409 7.06961 8.50099L6.99486 8.05252C6.97904 7.9576 6.97113 7.91014 6.96426 7.89653C6.92728 7.8233 6.82272 7.8233 6.78574 7.89653C6.77887 7.91014 6.77096 7.9576 6.75514 8.05252V8.05252C6.69857 8.3919 6.67029 8.56159 6.62315 8.7056C6.38834 9.42282 5.7698 9.94681 5.02373 10.0605C4.87394 10.0833 4.69637 10.0833 4.34125 10.0833V10.0833C4.06365 10.0833 3.92485 10.0833 3.82127 10.0611C3.34772 9.95968 3.01493 9.53345 3.03135 9.04943C3.03494 8.94356 3.06758 8.81302 3.13285 8.55193L4.2046 4.26493Z" stroke="#5A5A5A" stroke-width="2"/>
</svg>
