<svg width="14" height="14" viewBox="0 0 14 14" fill="none" xmlns="http://www.w3.org/2000/svg">
<path d="M2.53793 3.26493C2.71982 2.53737 2.81077 2.17359 3.08203 1.96179C3.35329 1.75 3.72827 1.75 4.47822 1.75H9.52178C10.2717 1.75 10.6467 1.75 10.918 1.96179C11.1892 2.17359 11.2802 2.53737 11.4621 3.26493L12.0064 5.44214C12.1301 5.93715 11.7476 6.41667 11.2374 6.41667C10.4813 6.41667 9.82557 5.87008 9.70128 5.12433C9.68692 5.03818 9.56308 5.03818 9.54872 5.12433L9.50116 5.40972C9.40431 5.99079 8.90158 6.41667 8.3125 6.41667C7.72342 6.41667 7.22069 5.99079 7.12384 5.40972L7.07628 5.12433C7.06192 5.03818 6.93808 5.03818 6.92372 5.12433L6.87616 5.40972C6.77931 5.99079 6.27658 6.41667 5.6875 6.41667C5.09842 6.41667 4.59569 5.99079 4.49884 5.40972L4.45128 5.12433C4.43692 5.03818 4.31308 5.03818 4.29872 5.12433C4.17443 5.87008 3.51865 6.41667 2.76261 6.41667C2.25237 6.41667 1.86988 5.93715 1.99363 5.44214L2.53793 3.26493Z" fill="#C0C0C0"/>
<path fill-rule="evenodd" clip-rule="evenodd" d="M2.96029 7.91029C2.91666 8.41349 2.91666 9.03996 2.91666 9.83333V10.8333C2.91666 11.7761 2.91666 12.2475 3.20955 12.5404C3.50244 12.8333 3.97385 12.8333 4.91666 12.8333H5.83332V10.9167C5.83332 10.3644 6.28104 9.91667 6.83332 9.91667H7.16666C7.71894 9.91667 8.16666 10.3644 8.16666 10.9167V12.8333H9.08332C10.0261 12.8333 10.4975 12.8333 10.7904 12.5404C11.0833 12.2475 11.0833 11.7761 11.0833 10.8333V9.83333C11.0833 9.03995 11.0833 8.41349 11.0397 7.91029C10.5692 7.87988 10.122 7.74173 9.72686 7.51758C9.31305 7.77167 8.82747 7.91667 8.31249 7.91667C7.8392 7.91667 7.39073 7.7942 6.99999 7.57712C6.60925 7.7942 6.16078 7.91667 5.68749 7.91667C5.17251 7.91667 4.68693 7.77167 4.27312 7.51758C3.87801 7.74173 3.43077 7.87988 2.96029 7.91029Z" fill="#C0C0C0"/>
</svg>
