<svg width="14" height="14" viewBox="0 0 14 14" fill="none" xmlns="http://www.w3.org/2000/svg">
<path fill-rule="evenodd" clip-rule="evenodd" d="M7 12.25C9.8995 12.25 12.25 9.8995 12.25 7C12.25 4.10051 9.8995 1.75 7 1.75C4.10051 1.75 1.75 4.10051 1.75 7C1.75 9.8995 4.10051 12.25 7 12.25ZM8 3.79167C8 3.23938 7.55228 2.79167 7 2.79167C6.44772 2.79167 6 3.23938 6 3.79167V6.75C6 7.44036 6.55964 8 7.25 8H9.04167C9.59395 8 10.0417 7.55228 10.0417 7C10.0417 6.44772 9.59395 6 9.04167 6H8V3.79167Z" fill="#C0C0C0"/>
</svg>
