<svg width="22" height="22" viewBox="0 0 22 22" fill="none" xmlns="http://www.w3.org/2000/svg">
<path fill-rule="evenodd" clip-rule="evenodd" d="M1.83325 9.83334C1.83325 6.06211 1.83325 4.17649 3.00482 3.00492C4.1764 1.83334 6.06202 1.83334 9.83325 1.83334H12.1666C15.9378 1.83334 17.8234 1.83334 18.995 3.00492C20.1666 4.17649 20.1666 6.06211 20.1666 9.83334V12.1667C20.1666 15.9379 20.1666 17.8235 18.995 18.9951C17.8234 20.1667 15.9378 20.1667 12.1666 20.1667H9.83325C6.06202 20.1667 4.1764 20.1667 3.00482 18.9951C1.83325 17.8235 1.83325 15.9379 1.83325 12.1667V9.83334ZM7.04297 15.0099C8.17816 14.1388 9.56905 13.6667 10.9999 13.6667C12.4308 13.6667 13.8217 14.1388 14.9569 15.0099C16.0921 15.8809 16.9081 17.1022 17.2784 18.4844C17.4214 19.0178 17.1048 19.5662 16.5713 19.7091C16.0379 19.852 15.4895 19.5355 15.3466 19.002C15.0902 18.0451 14.5252 17.1996 13.7393 16.5966C12.9534 15.9935 11.9905 15.6667 10.9999 15.6667C10.0093 15.6667 9.04639 15.9935 8.26049 16.5966C7.47459 17.1996 6.90964 18.0451 6.65325 19.002C6.51031 19.5355 5.96197 19.852 5.42851 19.7091C4.89504 19.5662 4.57846 19.0178 4.7214 18.4844C5.09174 17.1022 5.90778 15.8809 7.04297 15.0099ZM9.24992 8.25001C9.24992 7.28351 10.0334 6.50001 10.9999 6.50001C11.9664 6.50001 12.7499 7.28351 12.7499 8.25001C12.7499 9.21651 11.9664 10 10.9999 10C10.0334 10 9.24992 9.21651 9.24992 8.25001ZM10.9999 4.50001C8.92885 4.50001 7.24992 6.17894 7.24992 8.25001C7.24992 10.3211 8.92885 12 10.9999 12C13.071 12 14.7499 10.3211 14.7499 8.25001C14.7499 6.17894 13.071 4.50001 10.9999 4.50001Z" fill="white"/>
<rect x="2.33325" y="2.33334" width="17.3333" height="17.3333" rx="3.5" stroke="white"/>
</svg>
