<?xml version="1.0" standalone="no"?>
<svg xmlns:xlink="http://www.w3.org/1999/xlink" id="wave" style="transform:rotate(0deg); transition: 0.3s" viewBox="0 0 1440 490" version="1.1" xmlns="http://www.w3.org/2000/svg"><defs><linearGradient id="sw-gradient-0" x1="0" x2="0" y1="1" y2="0"><stop stop-color="rgba(56, 148, 252, 1)" offset="0%"/><stop stop-color="rgba(56, 148, 252, 1)" offset="100%"/></linearGradient></defs><path style="transform:translate(0, 0px); opacity:1" fill="url(#sw-gradient-0)" d="M0,147L120,171.5C240,196,480,245,720,228.7C960,212,1200,131,1440,155.2C1680,180,1920,310,2160,367.5C2400,425,2640,408,2880,367.5C3120,327,3360,261,3600,196C3840,131,4080,65,4320,32.7C4560,0,4800,0,5040,32.7C5280,65,5520,131,5760,147C6000,163,6240,131,6480,138.8C6720,147,6960,196,7200,212.3C7440,229,7680,212,7920,187.8C8160,163,8400,131,8640,155.2C8880,180,9120,261,9360,245C9600,229,9840,114,10080,65.3C10320,16,10560,33,10800,65.3C11040,98,11280,147,11520,204.2C11760,261,12000,327,12240,351.2C12480,376,12720,359,12960,318.5C13200,278,13440,212,13680,179.7C13920,147,14160,147,14400,138.8C14640,131,14880,114,15120,122.5C15360,131,15600,163,15840,171.5C16080,180,16320,163,16560,187.8C16800,212,17040,278,17160,310.3L17280,343L17280,490L17160,490C17040,490,16800,490,16560,490C16320,490,16080,490,15840,490C15600,490,15360,490,15120,490C14880,490,14640,490,14400,490C14160,490,13920,490,13680,490C13440,490,13200,490,12960,490C12720,490,12480,490,12240,490C12000,490,11760,490,11520,490C11280,490,11040,490,10800,490C10560,490,10320,490,10080,490C9840,490,9600,490,9360,490C9120,490,8880,490,8640,490C8400,490,8160,490,7920,490C7680,490,7440,490,7200,490C6960,490,6720,490,6480,490C6240,490,6000,490,5760,490C5520,490,5280,490,5040,490C4800,490,4560,490,4320,490C4080,490,3840,490,3600,490C3360,490,3120,490,2880,490C2640,490,2400,490,2160,490C1920,490,1680,490,1440,490C1200,490,960,490,720,490C480,490,240,490,120,490L0,490Z"/><defs><linearGradient id="sw-gradient-1" x1="0" x2="0" y1="1" y2="0"><stop stop-color="rgba(53, 92, 242, 1)" offset="0%"/><stop stop-color="rgba(53, 92, 242, 1)" offset="100%"/></linearGradient></defs><path style="transform:translate(0, 50px); opacity:0.9" fill="url(#sw-gradient-1)" d="M0,196L120,163.3C240,131,480,65,720,81.7C960,98,1200,196,1440,261.3C1680,327,1920,359,2160,318.5C2400,278,2640,163,2880,130.7C3120,98,3360,147,3600,212.3C3840,278,4080,359,4320,367.5C4560,376,4800,310,5040,294C5280,278,5520,310,5760,318.5C6000,327,6240,310,6480,269.5C6720,229,6960,163,7200,147C7440,131,7680,163,7920,187.8C8160,212,8400,229,8640,196C8880,163,9120,82,9360,89.8C9600,98,9840,196,10080,228.7C10320,261,10560,229,10800,212.3C11040,196,11280,196,11520,220.5C11760,245,12000,294,12240,277.7C12480,261,12720,180,12960,187.8C13200,196,13440,294,13680,277.7C13920,261,14160,131,14400,114.3C14640,98,14880,196,15120,228.7C15360,261,15600,229,15840,212.3C16080,196,16320,196,16560,204.2C16800,212,17040,229,17160,236.8L17280,245L17280,490L17160,490C17040,490,16800,490,16560,490C16320,490,16080,490,15840,490C15600,490,15360,490,15120,490C14880,490,14640,490,14400,490C14160,490,13920,490,13680,490C13440,490,13200,490,12960,490C12720,490,12480,490,12240,490C12000,490,11760,490,11520,490C11280,490,11040,490,10800,490C10560,490,10320,490,10080,490C9840,490,9600,490,9360,490C9120,490,8880,490,8640,490C8400,490,8160,490,7920,490C7680,490,7440,490,7200,490C6960,490,6720,490,6480,490C6240,490,6000,490,5760,490C5520,490,5280,490,5040,490C4800,490,4560,490,4320,490C4080,490,3840,490,3600,490C3360,490,3120,490,2880,490C2640,490,2400,490,2160,490C1920,490,1680,490,1440,490C1200,490,960,490,720,490C480,490,240,490,120,490L0,490Z"/></svg>